<svg width="23" height="43" viewBox="0 0 23 43" fill="none" xmlns="http://www.w3.org/2000/svg">
<path d="M11.6528 20.9977C11.6528 20.9977 10.4105 5.34201 11.5551 4.97806C12.6998 4.61412 12.5951 12.2466 12.5088 15.6568C14.3556 5.59831 16.1083 0.658677 17.3237 1.08778C18.5369 1.51727 13.3368 18.7803 13.3368 18.7803C13.3368 18.7803 18.3389 8.05233 19.4619 8.33184C20.5849 8.61134 14.1808 21.1975 13.9492 21.2352C13.7174 21.2702 11.6528 20.9977 11.6528 20.9977Z" fill="#048E74"/>
<path d="M4.94048 42.3082C4.94048 42.3082 2.76304 26.5665 7.57492 22.1475C11.5728 18.4766 15.6969 20.4474 17.2992 22.7293C18.9014 25.0112 20.4463 29.2911 14.9567 40.9382C6.57235 42.306 4.94048 42.3082 4.94048 42.3082Z" fill="#F2BA68"/>
<path d="M12.4293 23.6328C12.8086 23.6385 13.1882 23.6465 13.5497 23.7511C13.6882 23.7913 13.5882 24.0184 13.4497 23.9782C13.1092 23.8791 12.7442 23.8802 12.3853 23.873C12.2382 23.8703 12.2821 23.6301 12.4293 23.6328Z" fill="#E09A53"/>
<path d="M10.6783 24.6155C12.5063 24.5961 14.2787 24.835 16.006 25.2924C16.144 25.3301 16.0445 25.5542 15.9065 25.5165C14.1979 25.065 12.4421 24.8324 10.6347 24.8526C10.4883 24.8543 10.5319 24.6172 10.6783 24.6155Z" fill="#E09A53"/>
<path d="M10.8204 28.4053C11.4618 28.3028 12.0781 28.4064 12.7037 28.4544C12.8486 28.465 12.8054 28.7025 12.6605 28.6919C12.0555 28.6448 11.4575 28.5402 10.8386 28.6384C10.6897 28.6637 10.6713 28.4282 10.8204 28.4053Z" fill="#E09A53"/>
<path d="M6.94021 32.3055C8.24967 32.2322 9.51497 32.3854 10.773 32.6221C10.9147 32.6496 10.8712 32.8854 10.7298 32.8602C9.49479 32.6262 8.24527 32.4701 6.95854 32.5416C6.81263 32.5477 6.79448 32.314 6.94021 32.3055Z" fill="#E09A53"/>
<path d="M12.2391 33.0716C12.629 33.0821 13.0031 33.1584 13.3684 33.2701C13.5074 33.3129 13.4047 33.5427 13.268 33.4996C12.9216 33.3937 12.5665 33.3258 12.195 33.3165C12.0496 33.3112 12.0936 33.0663 12.2391 33.0716Z" fill="#E09A53"/>
<path d="M14.9793 38.0772C14.7185 38.0389 14.4547 38.023 14.1963 37.9867C14.0519 37.9667 14.096 37.7216 14.2405 37.744C14.5011 37.7798 14.7651 37.7981 15.0235 37.8344C15.1656 37.8549 15.1236 38.0972 14.9793 38.0772Z" fill="#E09A53"/>
<path d="M10.0482 37.2604C10.4194 37.1943 10.7694 37.2106 11.1167 37.313C11.2551 37.3532 11.153 37.5794 11.0169 37.5389C10.7092 37.4455 10.3967 37.4387 10.0662 37.497C9.9192 37.5251 9.90121 37.2885 10.0482 37.2604Z" fill="#E09A53"/>
<path d="M8.05285 39.1003C8.58958 39.0815 9.12631 39.0627 9.66286 39.0417C9.80837 39.0361 9.76555 39.2707 9.61985 39.274C9.08312 39.2928 8.54657 39.3139 8.00984 39.3327C7.86433 39.3383 7.90734 39.1059 8.05285 39.1003Z" fill="#E09A53"/>
<path d="M11.8143 21.3545C12.1009 21.3733 12.3865 21.4091 12.6732 21.4302C12.8189 21.4404 12.775 21.6841 12.6293 21.6739C12.3426 21.6528 12.057 21.617 11.7704 21.5982C11.6248 21.5881 11.6687 21.3444 11.8143 21.3545Z" fill="#E09A53"/>
<path d="M15.1241 21.7321C15.5467 21.7821 15.9712 21.8269 16.3907 21.8967C16.5088 21.9988 16.618 22.105 16.7226 22.2121C16.1846 22.0956 15.6326 22.0396 15.0824 21.9759C14.9339 21.9592 14.9778 21.7149 15.1241 21.7321Z" fill="#E09A53"/>
<path d="M16.5528 37.3371C15.393 37.0717 14.1959 36.9487 12.9995 36.8351C12.8541 36.8225 12.8977 36.5816 13.0433 36.5965C14.2628 36.7129 15.4762 36.8398 16.6573 37.113C16.6214 37.184 16.586 37.2619 16.5528 37.3371Z" fill="#E09A53"/>
<path d="M4.71991 37.0903C6.14785 37.1154 7.59173 36.9722 9.01565 37.0601C9.15986 37.0688 9.11726 37.3017 8.97305 37.293C7.56728 37.2042 6.13911 37.3446 4.72744 37.3234C4.72343 37.246 4.72167 37.1682 4.71991 37.0903Z" fill="#E09A53"/>
<path d="M5.13716 27.379C6.72405 27.2819 8.26293 27.504 9.8134 27.6703C9.95852 27.6855 9.91525 27.9198 9.77032 27.9069C8.21515 27.7392 6.66881 27.5091 5.07588 27.6167C5.09694 27.5358 5.11817 27.4572 5.13716 27.379Z" fill="#E09A53"/>
<path d="M6.87717 22.8215C8.4241 22.5641 9.96228 22.6537 11.4298 23.0297C11.5695 23.0646 11.4685 23.2847 11.331 23.2493C9.82622 22.8639 8.2419 22.7965 6.65724 23.0956C6.72956 23.0013 6.80206 22.9094 6.87717 22.8215Z" fill="#E09A53"/>
<path d="M4.76936 30.4847C9.20726 29.9517 13.5017 30.7104 17.6808 31.7173C17.8204 31.7498 17.719 31.9721 17.5816 31.9391C13.428 30.9369 9.15213 30.1818 4.73766 30.7221C4.74748 30.6431 4.75955 30.5637 4.76936 30.4847Z" fill="#E09A53"/>
<path d="M15.7794 28.2209C16.7163 28.3293 17.7896 28.4134 18.6133 28.8924C18.6037 28.9813 18.5922 29.0754 18.5806 29.1672C17.7747 28.6485 16.6813 28.5732 15.7374 28.4637C15.5911 28.4489 15.6331 28.2061 15.7794 28.2209Z" fill="#E09A53"/>
<path d="M4.92934 39.7771C5.32984 39.6904 5.72941 39.5925 6.13359 39.5783C6.27891 39.5732 6.23648 39.8048 6.09097 39.8076C5.70717 39.8204 5.32574 39.9175 4.94563 40.0028C4.94195 39.9303 4.93564 39.8537 4.92934 39.7771Z" fill="#E09A53"/>
<path d="M11.9863 17.9714C11.9467 17.4987 11.9072 17.0259 11.8679 16.5558C11.8536 16.3851 12.1097 16.3406 12.124 16.5113C12.1635 16.9841 12.2028 17.4542 12.2423 17.927C12.2568 18.1003 12.0007 18.1448 11.9863 17.9714Z" fill="#0E7A65"/>
<path d="M12.127 19.2218C12.1181 19.1056 12.1092 18.9893 12.1003 18.873C12.0875 18.7051 12.3288 18.6592 12.3416 18.8271C12.3505 18.9434 12.3594 19.0597 12.3683 19.176C12.3811 19.3439 12.1398 19.3898 12.127 19.2218Z" fill="#0E7A65"/>
<path d="M16.804 3.21345C16.698 3.79842 16.5749 4.38139 16.4467 4.96268C16.4111 5.13233 16.1708 5.10693 16.2088 4.93682C16.337 4.35553 16.4601 3.77256 16.5661 3.18758C16.5946 3.01929 16.8346 3.04211 16.804 3.21345Z" fill="#0E7A65"/>
<path d="M16.13 5.83827C16.0784 6.07175 16.007 6.29605 15.9286 6.52171C15.8715 6.68345 15.6571 6.59225 15.7141 6.43051C15.7847 6.22716 15.8506 6.02472 15.8967 5.8131C15.9341 5.64473 16.1675 5.66991 16.13 5.83827Z" fill="#0E7A65"/>
<path d="M15.5681 15.4987C15.6822 15.2603 15.7792 15.0125 15.9303 14.7953C16.0282 14.6553 16.2069 14.806 16.1089 14.946C15.9706 15.1452 15.8814 15.371 15.7778 15.5919C15.7065 15.7421 15.4949 15.6545 15.5681 15.4987Z" fill="#0E7A65"/>
<path d="M16.2742 14.2874C16.2793 14.1349 16.3534 14.0256 16.4384 13.9039C16.5363 13.7668 16.7167 13.9141 16.6187 14.0511C16.5847 14.0988 16.5106 14.1774 16.5082 14.2394C16.502 14.4075 16.268 14.4554 16.2742 14.2874Z" fill="#0E7A65"/>
</svg>
