<svg width="40" height="41" viewBox="0 0 40 41" fill="none" xmlns="http://www.w3.org/2000/svg">
<path opacity="0.9" d="M15.3183 27.9999C17.4166 27.9999 18.9903 26.7613 18.9903 24.5173V17.5959H16.6589V24.5173C16.6589 25.1439 16.3529 25.7268 15.3329 25.7268C14.546 25.7268 14.2109 25.4208 13.8903 24.8525L11.8649 26.0182C12.5352 27.315 13.7009 27.9999 15.3183 27.9999ZM26.5775 27.7959L29.1275 27.7959L25.6595 17.5959H22.6869L19.2189 27.7959H21.7689L22.2789 26.193H26.0675L26.5775 27.7959ZM22.9783 24.0073L24.1732 20.2625L25.368 24.0073L22.9783 24.0073ZM35.0681 27.7959H37.5743L35.4032 24.051C36.5252 23.4828 37.2829 22.3462 37.2829 21.093C37.2829 19.155 35.7238 17.5959 33.7858 17.5959H29.7058V27.7959H32.0372V24.4445H33.1446L35.0681 27.7959ZM32.0372 19.7816H33.7858C34.4269 19.7816 34.9515 20.3499 34.9515 21.093C34.9515 21.8362 34.4269 22.4045 33.7858 22.4045H32.0372V19.7816ZM16.382 29.5959H12.302L12.302 39.7959H16.382C19.1943 39.7959 21.3363 37.581 21.3363 34.6959C21.3363 31.8108 19.1943 29.5959 16.382 29.5959ZM16.382 37.5519H14.6334L14.6334 31.8399H16.382C17.9849 31.8399 19.0923 32.9473 19.0923 34.6959C19.0923 36.4445 17.9849 37.5519 16.382 37.5519ZM24.6872 37.5519V35.745H28.33V33.5302H24.6872V31.8399L28.6943 31.8399V29.5959L22.3557 29.5959L22.3557 39.7959H28.7672V37.5519H24.6872ZM35.474 29.5959V35.133L31.5397 29.5959H29.7912V39.7959H32.1226V34.2588L36.0569 39.7959H37.8054V29.5959H35.474Z" fill="#238CA3"/>
<path d="M11.4665 5.60427C8.52947 8.12505 5.9042 10.511 5.16967 14.5714C8.02416 12.5378 11.8008 12.0557 13.8018 9.59679C15.8668 7.06005 15.5005 3.55143 15.6128 0C13.21 1.16514 10.8299 1.81105 8.39442 2.38222C3.73375 3.47556 1.76208 8.65308 4.12594 13.4654C6.74474 8.63094 8.64463 6.52681 11.4665 5.60427Z" fill="#238CA3"/>
<path d="M0 35.9534C1.99113 36.0495 2.89619 35.4088 2.89619 33.711V17.6938H8.32653V33.711C8.32653 38.7083 5.71997 40.8546 0 40.5663V35.9534Z" fill="#238CA3"/>
</svg>
